PathFileType	4	(X/Y/Z)	Walk7.trc
DataRate	CameraRate	NumFrames	NumMarkers	Units	OrigDataRate	OrigDataStartFrame	OrigNumFrames
200.000000	200.000000	6	61	mm	200.000000	164	437
Frame#	Times		LFHD		RFHD		CLAV		STRN		LASI		RASI		RACR1		RUA1		RFA1		RWRU		RCAR		LACR1		LUA1		LFA1		LWRU		LCAR		RTH3		RTB4		LTH1		LTH3		LTH2		LTH4		LLFC		LTB1		LTB3		LTB2		LTB4		RTB1		RTB3		RMT5		RMFC		LBHD		RWRR		RTH2		RToe		RMT1		LElbow		RLFC		LWRR		RTB2		RMMAL		RTH4		RElbow		LMFC		LToe		LPSI		T10		RBack		RLMAL		RBHD		RTH1		RCAL		RPSI		C7		LElbowM		LMMAL		RElbowM		LLMAL		LCAL		LMT5		LMT1
			X1	Y1	Z1	X2	Y2	Z2	X3	Y3	Z3	X4	Y4	Z4	X5	Y5	Z5	X6	Y6	Z6	X7	Y7	Z7	X8	Y8	Z8	X9	Y9	Z9	X10	Y10	Z10	X11	Y11	Z11	X12	Y12	Z12	X13	Y13	Z13	X14	Y14	Z14	X15	Y15	Z15	X16	Y16	Z16	X17	Y17	Z17	X18	Y18	Z18	X19	Y19	Z19	X20	Y20	Z20	X21	Y21	Z21	X22	Y22	Z22	X23	Y23	Z23	X24	Y24	Z24	X25	Y25	Z25	X26	Y26	Z26	X27	Y27	Z27	X28	Y28	Z28	X29	Y29	Z29	X30	Y30	Z30	X31	Y31	Z31	X32	Y32	Z32	X33	Y33	Z33	X34	Y34	Z34	X35	Y35	Z35	X36	Y36	Z36	X37	Y37	Z37	X38	Y38	Z38	X39	Y39	Z39	X40	Y40	Z40	X41	Y41	Z41	X42	Y42	Z42	X43	Y43	Z43	X44	Y44	Z44	X45	Y45	Z45	X46	Y46	Z46	X47	Y47	Z47	X48	Y48	Z48	X49	Y49	Z49	X50	Y50	Z50	X51	Y51	Z51	X52	Y52	Z52	X53	Y53	Z53	X54	Y54	Z54	X55	Y55	Z55	X56	Y56	Z56	X57	Y57	Z57	X58	Y58	Z58	X59	Y59	Z59	X60	Y60	Z60	X61	Y61	Z61

164	0.82	-490.04	1564.2	-60.676	-492.47	1569.3	39.215	-545.16	1292.2	-8.5052	-526.57	1157.6	-1.8908	-565.22	885.71	-97.562	-571.93	903.64	152.87	-593.42	1334.7	161.51	-579.91	1169.8	223.96	-460.86	914.02	266.63	-364.02	852.22	214.36	-333.61	781.37	247.79	-635.38	1337.8	-156.3	-708.71	1176.5	-200.94	-816.22	904.8	-227.46	-799.01	780.49	-221.39	-852.08	726.6	-244.95	-717.43	583.45	181.66	-843.82	258.16	109.48	-579.76	724.71	-168.52	-527.59	563.92	-134.82	-503.74	667.14	-128.22	-554.09	643.42	-153.46	-480.32	438.07	-107.67	-411.08	361.52	-45.591	-368.89	196.22	-33.69	-409.24	269.21	-98.511	-392.94	277.23	-40.124	-800	333.22	120.86	-888.16	185.7	96.243	-913.63	24.55	109.52	-802.51	449.76	25.827	-635.67	1507.5	-84.932	-403.98	809.57	249.25	-638.07	651.3	175.54	-824.4	20.719	57.833	-876.38	29.273	25.692	-784.04	1036.9	-203.04	-773.15	440.26	153.36	-864.29	797.13	-204.66	-887.76	279.25	147.29	-962.61	127.87	23.703	-690.33	660.93	200.71	-562.66	1005.2	268.41	-500.07	420.18	23.81	-189.32	103.32	-39.213	-740.55	944.01	-36.955	-730.07	1189.1	17.318	-724.1	1277.2	86.21	-988.94	114.38	101.26	-637.63	1520.3	58.329	-660.35	740.17	223.22	-1041.9	113.22	55.662	-741.75	945.22	62.466	-653.09	1398.6	-1.269	-782.1	1021.4	-130.19	-373.28	95.364	6.5165	-605.83	990.56	203.84	-382.88	71.058	-71.858	-422.65	26.6	-26.055	-267.18	62.064	-82.052	-238.68	87.336	-9.661
165	0.825	-482.3	1563.6	-60.899	-484.87	1568.6	38.998	-537.22	1291.6	-9.2684	-518.38	1157	-2.6383	-556.59	884.98	-97.642	-563.54	902.79	152.66	-585.92	1333.9	160.76	-572.46	1169	223.26	-452.93	913.72	266.04	-355.78	852.42	213.7	-325.04	781.7	247.05	-627.31	1336.9	-157.23	-700.51	1175.6	-201.95	-807.97	903.9	-228.52	-790.88	779.56	-222.39	-843.95	725.64	-245.9	-709.09	582.59	181.73	-838.57	258.09	110.21	-571.3	724.18	-168.57	-519.28	563.45	-134.36	-495.24	666.64	-128.34	-545.73	642.91	-153.24	-472.14	437.43	-107.42	-403.53	360.35	-44.958	-362.75	194.82	-32.702	-402.24	268.02	-97.711	-386.08	275.97	-39.31	-793.44	332.35	121.48	-884.19	186.4	97.112	-913.17	24.819	109.76	-794.11	448.87	26.31	-627.87	1507	-85.492	-395.53	809.58	248.59	-629.75	650.46	175.56	-824.75	20.689	57.686	-876.36	29.286	25.798	-775.69	1035.9	-204.06	-764.95	439.31	153.72	-856.17	796.26	-205.73	-882.18	280.07	147.94	-959.8	129.84	24.836	-682.07	660.14	200.58	-555.14	1004.5	267.86	-491.98	419.97	24.045	-183.93	99.039	-37.907	-731.93	943.5	-37.693	-721.96	1188.2	16.377	-716.37	1276.3	85.105	-986.25	116.84	102.35	-630.03	1519.4	57.786	-652.14	739.48	222.84	-1039.1	117.02	56.932	-733.26	944.51	61.751	-645.34	1397.8	-2.2	-773.85	1020.4	-131.24	-368.08	94.042	7.4335	-598.22	989.73	203.24	-377.71	70.022	-70.992	-418.33	26.637	-25.426	-262.4	59.28	-80.976	-233.61	83.866	-8.4656
166	0.83	-474.56	1563.2	-61.132	-477.28	1567.9	38.771	-529.25	1291	-10.062	-510.17	1156.4	-3.4167	-548.02	884.36	-97.765	-555.09	901.97	152.37	-578.41	1333.2	160	-565.08	1168.3	222.55	-445.12	913.42	265.45	-347.7	852.58	213.08	-316.67	781.99	246.39	-619.2	1336.1	-158.2	-692.16	1174.7	-203.02	-799.45	902.97	-229.69	-782.47	778.61	-223.46	-835.51	724.64	-246.96	-700.47	581.65	181.8	-832.99	258	111.03	-562.94	723.74	-168.64	-510.93	563.14	-133.9	-486.76	666.3	-128.57	-537.39	642.52	-153.03	-463.86	436.99	-107.18	-396.07	359.22	-44.252	-357.03	193.4	-31.657	-395.41	266.9	-96.875	-379.48	274.73	-38.432	-786.53	331.42	122.15	-879.93	187.13	98.053	-912.65	25.156	110.02	-785.34	447.85	26.851	-620.06	1506.5	-86.087	-387.25	809.56	247.98	-621.21	649.61	175.55	-825.13	20.643	57.54	-876.33	29.351	25.924	-767.14	1034.9	-205.19	-756.35	438.28	154.1	-847.77	795.36	-206.93	-876.25	280.91	148.65	-956.69	131.9	26.06	-673.58	659.32	200.42	-547.71	1003.8	267.28	-483.82	419.98	24.262	-179.16	94.268	-36.502	-723.34	943.1	-38.343	-713.82	1187.4	15.417	-708.62	1275.4	83.959	-983.25	119.43	103.52	-622.43	1518.6	57.208	-643.79	738.77	222.41	-1036	121.03	58.298	-724.75	943.89	61.144	-637.56	1397	-3.1753	-765.46	1019.5	-132.38	-363.51	92.713	8.3351	-590.68	988.96	202.6	-373.16	69.039	-70.158	-414.75	26.82	-24.872	-258.29	56.274	-79.874	-229.21	80.033	-7.1922
167	0.835	-466.82	1562.9	-61.377	-469.71	1567.3	38.531	-521.27	1290.5	-10.881	-501.93	1156	-4.2205	-539.53	883.87	-97.938	-546.57	901.17	152	-570.88	1332.5	159.22	-557.76	1167.7	221.81	-437.45	913.14	264.87	-339.77	852.69	212.51	-308.5	782.22	245.81	-611.04	1335.4	-159.2	-683.63	1173.8	-204.15	-790.67	902.02	-230.96	-773.76	777.64	-224.6	-826.74	723.62	-248.13	-691.55	580.65	181.87	-827.05	257.9	111.91	-554.69	723.42	-168.76	-502.56	563	-133.44	-478.31	666.12	-128.9	-529.11	642.26	-152.85	-455.47	436.74	-106.95	-388.7	358.18	-43.487	-351.69	192.01	-30.578	-388.71	265.89	-96.025	-373.11	273.54	-37.511	-779.25	330.43	122.88	-875.33	187.91	99.061	-912.04	25.58	110.31	-776.17	446.71	27.445	-612.23	1506.2	-86.716	-379.17	809.52	247.41	-612.43	648.77	175.5	-825.54	20.577	57.4	-876.24	29.482	26.073	-758.38	1033.9	-206.42	-747.33	437.16	154.52	-839.1	794.43	-208.27	-869.95	281.78	149.41	-953.26	134.06	27.369	-664.87	658.44	200.23	-540.37	1003.2	266.67	-475.61	420.22	24.455	-174.96	89.126	-35.022	-714.79	942.81	-38.897	-705.68	1186.6	14.444	-700.84	1274.7	82.782	-979.93	122.15	104.77	-614.83	1517.9	56.596	-635.27	738.05	221.93	-1032.4	125.27	59.753	-716.23	943.36	60.649	-629.74	1396.4	-4.1877	-756.92	1018.5	-133.62	-359.52	91.419	9.1987	-583.21	988.26	201.93	-369.17	68.139	-69.375	-411.83	27.14	-24.402	-254.79	53.131	-78.773	-225.41	75.938	-5.8622
168	0.84	-459.08	1562.7	-61.637	-462.15	1566.8	38.273	-513.26	1290.1	-11.719	-493.68	1155.7	-5.0434	-531.12	883.52	-98.167	-538.02	900.42	151.55	-563.32	1331.9	158.44	-550.48	1167.1	221.05	-429.91	912.87	264.31	-331.99	852.75	211.99	-300.53	782.39	245.31	-602.85	1334.7	-160.21	-674.94	1172.9	-205.34	-781.61	901.05	-232.31	-764.75	776.66	-225.81	-817.63	722.59	-249.42	-682.32	579.57	181.92	-820.75	257.8	112.85	-546.54	723.21	-168.92	-494.17	563.02	-133	-469.9	666.12	-129.34	-520.86	642.15	-152.7	-447.01	436.69	-106.74	-381.41	357.22	-42.681	-346.7	190.67	-29.494	-382.14	264.99	-95.184	-366.95	272.44	-36.57	-771.59	329.4	123.65	-870.38	188.74	100.13	-911.35	26.112	110.63	-766.57	445.42	28.082	-604.4	1505.9	-87.377	-371.27	809.46	246.88	-603.43	647.93	175.42	-825.97	20.489	57.269	-876.1	29.698	26.25	-749.41	1032.9	-207.75	-737.88	435.94	154.95	-830.14	793.47	-209.75	-863.25	282.67	150.21	-949.47	136.33	28.751	-655.92	657.53	200.01	-533.12	1002.7	266.03	-467.37	420.68	24.621	-171.28	83.75	-33.491	-706.3	942.64	-39.348	-697.52	1186	13.469	-693.04	1274	81.586	-976.24	125.01	106.09	-607.23	1517.2	55.953	-626.6	737.3	221.41	-1028.4	129.75	61.292	-707.72	942.91	60.272	-621.9	1395.8	-5.2288	-748.25	1017.5	-134.93	-356.05	90.2	10.002	-575.82	987.62	201.22	-365.66	67.348	-68.661	-409.48	27.581	-24.024	-251.83	49.938	-77.7	-222.17	71.69	-4.5006
169	0.845	-451.33	1562.6	-61.916	-454.59	1566.4	37.995	-505.23	1289.8	-12.57	-485.42	1155.4	-5.8785	-522.8	883.32	-98.458	-529.45	899.71	151.02	-555.72	1331.4	157.66	-543.24	1166.6	220.28	-422.51	912.61	263.75	-324.38	852.76	211.52	-292.77	782.51	244.9	-594.62	1334.2	-161.24	-666.08	1172.1	-206.57	-772.28	900.07	-233.76	-755.44	775.67	-227.08	-808.19	721.55	-250.82	-672.79	578.43	181.96	-814.05	257.7	113.85	-538.5	723.13	-169.14	-485.77	563.2	-132.59	-461.54	666.29	-129.88	-512.67	642.18	-152.6	-438.47	436.83	-106.55	-374.21	356.38	-41.858	-342.02	189.41	-28.434	-375.7	264.24	-94.378	-361	271.44	-35.636	-763.52	328.34	124.47	-865.05	189.63	101.24	-910.55	26.78	110.97	-756.51	443.97	28.755	-596.56	1505.7	-88.068	-363.57	809.37	246.39	-594.19	647.1	175.28	-826.41	20.375	57.155	-875.87	30.02	26.461	-740.24	1031.9	-209.17	-727.99	434.64	155.41	-820.89	792.51	-211.35	-856.13	283.59	151.03	-945.31	138.72	30.195	-646.74	656.57	199.76	-525.95	1002.2	265.36	-459.13	421.35	24.755	-168.08	78.279	-31.932	-697.89	942.58	-39.694	-689.37	1185.5	12.501	-685.22	1273.5	80.386	-972.15	128.01	107.46	-599.63	1516.6	55.28	-617.78	736.55	220.84	-1024	134.47	62.906	-699.23	942.54	60.015	-614.02	1395.4	-6.2891	-739.43	1016.6	-136.32	-353.04	89.082	10.728	-568.5	987.06	200.47	-362.59	66.677	-68.03	-407.6	28.124	-23.742	-249.33	46.78	-76.684	-219.42	67.4	-3.1342
